<?xml version="1.0" standalone="no"?>
<!DOCTYPE svg PUBLIC "-//W3C//DTD SVG 20010904//EN"
 "http://www.w3.org/TR/2001/REC-SVG-20010904/DTD/svg10.dtd">
<svg version="1.0" xmlns="http://www.w3.org/2000/svg"
 width="720.000000pt" height="720.000000pt" viewBox="0 0 720.000000 720.000000"
 preserveAspectRatio="xMidYMid meet">

<g transform="translate(0.000000,720.000000) scale(0.100000,-0.100000)"
fill="#000000" stroke="none">
<path d="M3580 6678 c0 -4 -17 -10 -37 -13 -174 -27 -322 -72 -392 -120 -48
-33 -134 -117 -196 -191 -29 -36 -43 -64 -52 -108 -7 -32 -10 -62 -8 -67 3 -4
1 -10 -5 -14 -6 -4 -8 -11 -4 -16 3 -5 1 -16 -6 -24 -6 -7 -7 -16 -2 -19 5 -3
6 -24 2 -48 -6 -29 -5 -45 3 -50 7 -4 8 -8 2 -8 -6 0 -11 -62 -11 -163 -1
-111 1 -146 6 -112 19 116 23 136 31 141 5 3 9 10 9 15 0 6 -6 7 -12 3 -9 -5
-9 -2 1 9 15 19 26 23 15 5 -5 -7 -3 -8 5 -4 7 5 10 14 7 22 -3 8 -1 14 5 14
6 0 8 4 5 9 -9 13 56 95 78 99 11 2 28 13 40 24 12 12 14 17 6 13 -13 -8 -13
-6 -2 8 8 9 10 22 6 28 -5 8 -3 9 5 5 7 -5 10 -14 7 -22 -8 -22 31 -11 68 18
47 38 91 58 116 53 12 -2 30 0 39 5 17 9 89 20 151 23 19 1 41 6 48 10 7 5 12
3 12 -5 0 -10 3 -9 10 2 8 12 11 12 27 -2 13 -12 30 -15 65 -11 26 3 46 10 45
16 -1 7 11 10 30 9 17 -2 51 3 75 11 28 10 76 15 133 14 76 -2 95 -6 122 -24
17 -13 35 -23 41 -23 8 0 62 -107 62 -125 0 -4 8 -14 18 -22 10 -9 11 -11 2
-7 -11 6 -10 2 3 -13 9 -11 17 -26 17 -34 0 -8 3 -10 8 -4 11 15 42 15 42 -1
0 -8 6 -11 15 -8 9 4 19 -3 26 -20 7 -14 17 -26 22 -26 6 0 7 -3 4 -7 -4 -3 3
-11 16 -17 17 -9 22 -21 23 -54 0 -23 4 -45 7 -49 4 -3 7 -16 7 -27 0 -17 2
-18 10 -6 7 12 10 11 16 -5 5 -11 3 -20 -4 -23 -7 -2 -10 -8 -7 -12 3 -5 -1
-24 -9 -42 -13 -31 -14 -31 -15 -8 -1 22 -3 23 -12 8 -16 -29 5 -112 27 -104
18 7 18 -3 -3 -50 -9 -22 -16 -43 -15 -47 1 -4 -2 -17 -8 -27 -7 -14 -7 -20 0
-20 5 0 10 6 10 13 0 9 2 9 9 -1 4 -8 7 -29 5 -48 -4 -53 13 -40 27 21 6 29
16 53 21 52 6 -1 15 7 21 18 7 11 15 22 18 25 3 3 13 16 22 30 17 24 17 24 13
-35 l-5 -60 10 50 c5 28 16 79 24 115 9 36 18 96 20 133 3 38 7 73 10 77 3 5
8 57 11 116 2 59 7 111 9 115 3 3 -2 12 -10 19 -8 7 -12 17 -9 22 4 6 0 14 -7
19 -12 8 -12 11 1 18 12 9 12 11 -3 17 -11 4 -16 13 -12 22 3 8 0 21 -6 28 -7
8 -13 24 -14 37 -4 37 -5 38 -15 32 -5 -3 -10 0 -10 7 0 7 -22 34 -50 59 -27
25 -50 44 -50 41 0 -3 -9 3 -19 12 -11 10 -25 15 -32 10 -7 -4 -10 -3 -6 3 8
12 -48 23 -60 12 -5 -4 -19 -10 -31 -14 -22 -6 -23 -5 -11 17 11 21 11 22 -5
9 -19 -16 -38 -4 -41 26 -6 70 -23 100 -79 143 -18 13 -19 13 -11 0 6 -11 3
-10 -11 2 -21 18 -88 50 -114 55 -161 27 -218 33 -282 31 -43 -1 -78 -5 -78
-10z m720 -708 c0 -5 -2 -10 -4 -10 -3 0 -8 5 -11 10 -3 6 -1 10 4 10 6 0 11
-4 11 -10z m70 -140 c0 -5 -2 -10 -4 -10 -3 0 -8 5 -11 10 -3 6 -1 10 4 10 6
0 11 -4 11 -10z m7 -132 c-3 -7 -5 -2 -5 12 0 14 2 19 5 13 2 -7 2 -19 0 -25z
m46 -33 c-3 -9 -8 -14 -10 -11 -3 3 -2 9 2 15 9 16 15 13 8 -4z m-8 -52 c-5
-40 -6 -40 -14 -18 -4 11 -3 25 3 32 15 17 15 17 11 -14z"/>
<path d="M4310 5760 c0 -11 2 -20 4 -20 2 0 6 9 9 20 3 11 1 20 -4 20 -5 0 -9
-9 -9 -20z"/>
<path d="M3893 5663 c-13 -3 -23 -9 -23 -14 0 -5 -14 -7 -31 -4 -18 3 -57 0
-88 -6 -31 -7 -60 -12 -64 -11 -4 1 -17 -3 -29 -9 -16 -8 -19 -8 -13 1 5 9 1
10 -16 5 -13 -4 -29 -12 -36 -17 -7 -6 -13 -4 -16 4 -4 9 -6 7 -6 -4 -1 -11
-8 -15 -25 -14 -18 2 -22 -1 -18 -16 2 -10 0 -18 -5 -18 -5 0 -10 -17 -10 -37
-1 -38 7 -50 72 -101 21 -17 36 -21 57 -17 23 5 27 4 22 -9 -3 -9 0 -18 7 -20
20 -7 219 -12 209 -6 -5 3 0 17 10 30 16 21 20 22 20 7 0 -10 6 -20 13 -22 18
-6 130 19 134 30 1 6 -22 24 -53 40 -52 28 -63 30 -160 30 l-104 -1 37 23 c21
13 46 23 56 23 39 0 107 23 107 36 0 14 62 30 79 19 6 -3 11 1 11 9 0 9 5 16
12 16 6 0 3 9 -7 20 -10 11 -23 19 -29 17 -6 -3 -18 -1 -26 3 -24 11 -63 17
-87 13z m-56 -189 c-3 -3 -12 -4 -19 -1 -8 3 -5 6 6 6 11 1 17 -2 13 -5z"/>
<path d="M2990 5637 c-19 -5 -43 -16 -52 -24 -21 -19 -24 -45 -5 -37 14 5 18
-72 4 -93 -5 -8 -3 -13 3 -13 7 0 10 -7 7 -15 -4 -8 -2 -17 2 -20 10 -6 32 50
24 59 -4 3 -1 6 5 6 6 0 14 -4 17 -10 3 -5 11 -10 16 -10 6 0 8 4 5 9 -7 10
42 21 98 21 28 0 54 -8 79 -26 45 -30 44 -37 -4 -24 -47 14 -142 13 -176 -2
-15 -7 -37 -21 -47 -32 -19 -19 -19 -19 2 -36 21 -18 140 -46 150 -36 3 3 -5
6 -17 6 -19 0 -21 4 -15 23 10 33 28 41 32 14 5 -38 30 -46 108 -33 55 9 68
14 66 28 -2 12 3 15 18 11 49 -13 100 34 100 92 0 37 -83 105 -129 105 -20 1
-47 7 -61 15 -14 8 -47 15 -75 15 -27 0 -66 4 -85 8 -19 5 -51 4 -70 -1z"/>
<path d="M4503 5409 c-7 -7 -8 -21 -3 -38 5 -14 11 -47 15 -73 7 -54 19 -68
34 -39 12 21 15 119 5 145 -7 18 -35 21 -51 5z"/>
<path d="M4341 5309 c0 -19 5 -43 10 -54 6 -13 7 -4 3 30 -8 60 -14 72 -13 24z"/>
<path d="M4420 5253 c0 -27 6 -46 19 -57 11 -10 22 -28 25 -41 7 -28 36 -42
36 -17 -1 9 -7 28 -15 42 -8 14 -14 34 -15 46 0 11 -11 31 -25 44 l-25 23 0
-40z"/>
<path d="M4352 5200 c0 -14 2 -19 5 -12 2 6 2 18 0 25 -3 6 -5 1 -5 -13z"/>
<path d="M3303 5002 l-51 -3 10 -37 c14 -51 22 -58 74 -66 25 -3 57 -15 71
-26 36 -28 53 -25 105 15 31 25 59 37 94 41 45 6 84 27 84 44 0 4 -11 5 -25 2
-14 -2 -31 1 -39 7 -22 19 -114 30 -120 16 -4 -13 -36 -13 -75 0 -11 3 -30 1
-42 -5 -12 -7 -19 -8 -15 -2 8 14 -10 17 -71 14z"/>
<path d="M3360 4781 c0 -4 -13 -6 -28 -3 -16 2 -45 -3 -66 -12 -26 -11 -44
-13 -62 -6 -33 13 -34 13 -34 -5 0 -8 -4 -15 -10 -15 -5 0 -10 -6 -10 -14 0
-21 53 -29 129 -20 88 10 403 5 417 -7 12 -10 100 7 109 21 2 4 -10 17 -27 30
-30 22 -32 22 -45 4 -13 -18 -16 -18 -99 4 -47 12 -90 20 -96 16 -5 -4 -14 -1
-18 6 -6 10 -17 11 -51 2 -23 -6 -47 -8 -53 -5 -15 10 -56 13 -56 4z"/>
<path d="M3280 4620 c-13 -8 -12 -13 8 -32 21 -21 31 -23 142 -23 100 0 122 3
137 18 16 16 16 17 -5 17 -13 0 -25 6 -28 14 -4 10 -17 13 -47 9 -51 -6 -98
-5 -152 2 -22 3 -47 1 -55 -5z"/>
<path d="M3046 4572 c-3 -5 0 -12 6 -15 10 -3 10 -8 -1 -21 -12 -15 -12 -17 0
-14 8 2 13 -3 11 -11 -2 -8 10 -28 26 -45 15 -17 40 -47 54 -66 25 -33 37 -48
96 -112 20 -22 26 -40 28 -84 1 -31 6 -63 10 -73 3 -9 7 -29 8 -46 1 -16 8
-40 14 -52 14 -26 8 -30 -14 -9 -8 8 -14 27 -15 43 -1 15 -4 39 -8 53 -7 23
-9 20 -28 -30 -32 -85 -46 -172 -41 -256 6 -90 27 -126 80 -135 19 -3 55 -17
80 -31 33 -18 45 -21 41 -11 -5 12 -1 14 18 8 53 -17 68 -25 78 -42 6 -10 11
-13 11 -7 0 24 95 71 155 77 33 3 61 11 63 17 2 6 29 27 60 46 148 94 325 238
468 379 120 118 123 124 83 170 -45 51 -53 46 -45 -34 5 -61 3 -72 -16 -97
-51 -68 -201 -189 -220 -178 -7 4 -8 3 -4 -4 5 -8 -1 -12 -14 -12 -12 0 -19 4
-16 9 4 5 -3 7 -14 4 -17 -5 -18 -8 -8 -21 11 -13 10 -14 -7 -5 -11 6 -34 9
-50 6 -29 -4 -29 -4 -11 11 11 9 14 16 7 16 -7 0 -9 5 -6 10 3 6 1 10 -5 10
-7 0 -9 -7 -6 -16 4 -10 1 -14 -6 -12 -7 3 -14 14 -16 26 -2 12 -8 22 -13 22
-5 0 -9 7 -9 15 0 17 16 20 25 5 9 -14 22 -12 28 4 4 10 1 13 -7 10 -8 -3 -16
4 -19 17 -6 22 -7 22 -27 4 -11 -10 -20 -26 -20 -37 0 -10 -5 -18 -11 -18 -5
0 -8 -4 -5 -9 3 -5 -1 -12 -10 -15 -22 -9 -26 -8 -18 6 4 7 3 8 -4 4 -6 -4 -8
-14 -5 -23 5 -13 2 -15 -11 -10 -10 4 -23 7 -29 7 -7 0 -1 9 13 20 24 18 24
19 3 17 -12 0 -19 -5 -17 -9 3 -4 1 -8 -5 -8 -15 0 -23 18 -10 25 5 4 7 14 3
24 -13 33 -12 81 2 81 8 0 14 7 14 15 0 8 7 15 15 15 8 0 15 5 15 10 0 6 9 10
19 10 11 0 23 5 26 10 4 6 11 8 16 5 5 -4 12 0 15 9 3 8 12 12 20 9 8 -3 14 0
14 7 0 6 4 9 9 6 5 -3 11 2 14 13 2 11 17 21 36 24 18 4 30 11 27 15 -3 5 6
15 19 22 13 7 22 17 19 22 -6 9 37 28 49 21 4 -2 7 1 7 7 0 6 25 36 55 66 30
31 55 61 55 67 0 7 -7 3 -16 -8 -8 -11 -27 -20 -42 -21 -15 -1 -30 -3 -34 -3
-5 -1 -8 -7 -8 -14 0 -7 -6 -22 -14 -32 -11 -15 -17 -17 -28 -7 -12 10 -18 8
-33 -8 -10 -11 -22 -17 -27 -14 -6 4 -8 -2 -4 -14 4 -13 1 -22 -9 -26 -10 -3
-15 0 -15 11 0 14 -2 14 -17 2 -35 -28 -60 -38 -70 -28 -6 6 -15 4 -24 -7 -12
-15 -12 -17 0 -9 10 5 12 4 7 -3 -4 -7 -14 -12 -22 -12 -9 0 -12 5 -8 11 3 6
-5 3 -20 -6 -15 -10 -37 -15 -51 -13 -14 3 -25 1 -25 -5 0 -6 -4 -6 -12 1 -7
5 -29 12 -48 15 -61 9 -184 51 -197 67 -7 8 -13 10 -13 4 0 -6 -19 -11 -45
-11 -28 0 -52 -6 -64 -17 -10 -9 -25 -14 -34 -10 -8 3 -25 1 -36 -5 -34 -18
-59 0 -142 104 -21 28 -44 50 -49 50 -6 0 -10 5 -9 10 0 6 7 9 15 7 20 -4 18
32 -3 49 -15 13 -15 12 -5 -6 9 -18 7 -21 -11 -22 -14 -2 -17 1 -9 6 9 6 9 11
-1 26 -9 11 -16 14 -21 7z"/>
<path d="M4210 4540 c-6 -11 -8 -20 -6 -20 3 0 10 9 16 20 6 11 8 20 6 20 -3
0 -10 -9 -16 -20z"/>
<path d="M4440 4223 c0 -5 4 -25 9 -45 9 -40 3 -50 -159 -259 -36 -46 -80
-108 -98 -137 -46 -77 -195 -261 -210 -262 -16 0 -73 42 -118 86 -17 18 -50
44 -73 59 -36 24 -45 26 -67 16 -14 -6 -33 -11 -44 -11 -10 0 -20 -5 -22 -10
-2 -6 -20 -11 -41 -12 -39 -1 -91 -40 -84 -62 2 -6 29 -12 60 -14 60 -3 75
-17 30 -28 -71 -16 -133 -36 -138 -45 -10 -15 -35 -10 -29 6 4 10 0 15 -14 15
-12 0 -24 6 -28 13 -4 6 -4 9 1 5 4 -4 14 -3 22 3 14 13 18 33 4 25 -5 -3 -11
1 -15 9 -3 8 -12 12 -19 9 -8 -3 -28 7 -46 21 -19 17 -29 21 -25 11 10 -27
-11 -18 -55 24 -28 27 -51 40 -69 40 -30 -1 -87 -44 -77 -60 3 -5 0 -7 -9 -4
-10 4 -18 -5 -25 -33 -6 -21 -11 -44 -11 -50 0 -7 -5 -13 -11 -13 -7 0 -9 14
-4 43 4 23 6 105 5 182 -1 119 2 151 20 210 25 79 49 129 93 195 l30 45 -54
-51 c-62 -59 -104 -88 -139 -99 -55 -17 -236 -97 -245 -109 -5 -7 -30 -20 -55
-28 -25 -9 -122 -43 -215 -76 -194 -68 -240 -89 -309 -143 -27 -22 -65 -43
-85 -49 -74 -20 -120 -94 -202 -324 -22 -60 -58 -148 -81 -195 -42 -90 -98
-230 -124 -316 -9 -27 -24 -59 -35 -70 -20 -22 -49 -96 -49 -125 0 -10 -11
-25 -25 -34 -18 -12 -25 -25 -25 -48 0 -24 -30 -79 -117 -212 -64 -100 -126
-192 -139 -206 -12 -14 -35 -52 -52 -85 -16 -33 -40 -69 -52 -80 -30 -27 -66
-93 -75 -135 -4 -19 -24 -53 -44 -75 -87 -95 -131 -190 -131 -281 0 -24 -7
-73 -16 -111 -18 -77 -15 -164 10 -316 34 -209 68 -242 331 -317 268 -77 441
-110 581 -110 73 0 75 -1 69 -22 -4 -13 -12 -27 -19 -33 -15 -14 -20 -58 -4
-49 8 5 9 2 5 -10 -4 -10 -7 -21 -7 -24 0 -4 -4 -1 -9 6 -6 10 -10 8 -14 -8
-4 -16 -2 -20 10 -16 9 4 13 1 10 -6 -2 -7 -12 -12 -21 -12 -9 1 -16 -4 -16
-12 0 -8 5 -14 10 -14 6 0 10 -6 10 -12 -1 -7 -10 -2 -20 11 -23 27 -27 15 -5
-15 19 -25 19 -35 0 -28 -8 4 -15 1 -15 -6 0 -7 -8 -19 -18 -27 -16 -14 -16
-14 2 -9 18 6 18 5 2 -18 -9 -14 -16 -32 -16 -41 0 -9 -9 -15 -22 -16 -22 -1
-22 -1 2 -8 22 -6 23 -8 7 -14 -10 -4 -16 -11 -12 -16 3 -5 1 -12 -5 -16 -6
-4 -8 -11 -5 -16 4 -5 1 -9 -4 -9 -7 0 -9 -15 -6 -39 4 -30 1 -40 -11 -45 -11
-4 -14 -13 -11 -28 4 -12 1 -28 -5 -35 -9 -11 295 -13 1691 -13 1617 0 1702 1
1697 18 -3 9 -12 67 -21 127 -9 61 -23 138 -31 173 -16 72 -20 59 68 200 34
53 74 122 89 153 25 50 109 267 144 374 62 186 125 408 135 472 6 43 24 159
40 258 16 99 34 216 40 260 6 44 33 197 60 340 27 143 54 298 60 345 6 47 18
112 26 144 9 32 17 93 19 135 2 42 7 96 10 121 7 57 -8 138 -38 198 -56 113
-347 316 -719 500 -137 68 -248 127 -248 132 0 5 -33 36 -74 69 -40 34 -95 91
-121 127 -27 36 -59 70 -73 75 -28 11 -72 12 -72 2z m-795 -602 c-14 -12 -73
-25 -60 -13 6 6 19 12 30 15 34 8 40 8 30 -2z m-10 -112 c10 -16 -1 -22 -26
-14 -17 6 -19 9 -8 16 19 12 26 11 34 -2z m-1786 -1274 c16 -8 53 -42 83 -75
l54 -61 -3 33 c-4 39 15 81 39 86 33 6 95 -70 155 -188 85 -169 89 -179 69
-193 -15 -11 -15 -14 -2 -32 14 -18 15 -18 16 -2 0 9 5 17 10 17 10 0 14 -14
11 -37 -1 -7 3 -13 9 -13 6 0 10 -6 8 -12 -2 -7 6 -41 16 -76 11 -34 17 -64
15 -66 -20 -19 -238 10 -379 51 -104 31 -198 53 -227 53 -16 0 -30 16 -57 64
-20 35 -36 71 -36 80 0 31 23 65 46 68 24 3 24 4 -16 63 -44 66 -47 80 -24
113 30 43 65 30 149 -55 70 -71 87 -70 28 1 -45 54 -74 122 -63 150 16 44 53
55 99 31z m2281 -570 c25 -8 84 -22 133 -31 48 -10 87 -23 87 -29 0 -18 -25
-82 -39 -98 -10 -12 -18 -14 -39 -6 -25 10 -26 9 -9 -9 17 -19 17 -21 -3 -59
-11 -22 -25 -65 -30 -94 -5 -30 -16 -76 -25 -103 -8 -27 -15 -69 -15 -93 l0
-43 -40 0 c-30 0 -45 -6 -62 -25 -12 -14 -28 -25 -35 -25 -7 0 -13 -5 -13 -11
0 -5 -5 -7 -10 -4 -6 3 -13 0 -16 -8 -2 -7 -12 -14 -20 -14 -8 0 -13 5 -11 11
3 6 9 10 14 9 5 -1 10 4 10 12 0 16 -23 9 -31 -10 -4 -11 -24 -13 -86 -10 -77
4 -80 4 -70 -15 6 -11 9 -21 8 -21 -24 -11 -153 -24 -168 -17 -8 3 -37 16 -65
28 -50 22 -60 26 -125 53 -60 26 -102 37 -135 37 -48 0 -67 20 -75 78 -3 27
-2 60 2 73 18 49 49 210 42 221 -5 7 -3 8 6 3 8 -5 11 -3 8 6 -3 8 1 20 9 27
7 7 13 19 13 25 0 7 -4 6 -10 -3 -8 -13 -10 -13 -10 2 0 17 15 31 37 34 6 1
19 7 30 13 14 8 15 10 2 11 -8 0 -20 -5 -27 -12 -9 -9 -12 -9 -12 0 0 20 29
26 55 12 40 -21 238 -9 300 19 72 32 314 91 350 85 17 -3 50 -12 75 -19z m-70
-645 c0 -5 -5 -10 -11 -10 -5 0 -7 5 -4 10 3 6 8 10 11 10 2 0 4 -4 4 -10z
m-1550 -330 c0 -5 -2 -10 -4 -10 -3 0 -8 5 -11 10 -3 6 -1 10 4 10 6 0 11 -4
11 -10z"/>
<path d="M2130 1877 c0 -7 7 -22 15 -33 13 -17 14 -16 4 14 -11 33 -19 41 -19
19z"/>
<path d="M2165 1793 c3 -10 15 -45 26 -78 11 -33 22 -66 25 -74 2 -8 7 -12 10
-9 5 6 -55 178 -63 178 -3 0 -2 -8 2 -17z"/>
<path d="M3929 4203 c0 -5 -2 -18 -3 -30 -2 -13 3 -23 9 -23 7 0 10 11 7 30
-4 28 -11 40 -13 23z"/>
<path d="M3900 4110 c0 -6 12 -10 26 -10 16 0 23 -4 18 -12 -4 -7 -3 -8 4 -4
6 4 9 12 6 19 -5 15 -54 21 -54 7z"/>
<path d="M3809 4069 c-8 -17 -8 -20 2 -17 7 2 13 12 15 21 3 23 -3 21 -17 -4z"/>
<path d="M3450 3610 c0 -5 5 -10 11 -10 5 0 7 5 4 10 -3 6 -8 10 -11 10 -2 0
-4 -4 -4 -10z"/>
</g>
</svg>
